<?xml version="1.0" encoding="UTF-8"?>
<svg width="60px" height="60px" viewBox="0 0 60 60" version="1.1" xmlns="http://www.w3.org/2000/svg" xmlns:xlink="http://www.w3.org/1999/xlink">
    <!-- Generator: Sketch 43.2 (39069) - http://www.bohemiancoding.com/sketch -->
    <title>icon</title>
    <desc>Created with Sketch.</desc>
    <defs></defs>
    <g id="Page-1" stroke="none" stroke-width="1" fill="none" fill-rule="evenodd">
        <g id="Desktop-HD" transform="translate(-490.000000, -804.000000)">
            <g id="cards" transform="translate(0.000000, 664.000000)">
                <g id="item" transform="translate(490.000000, 140.000000)">
                    <g id="icon">
                        <rect stroke="#FFFFFF" opacity="0.300000012" x="0.5" y="0.5" width="59" height="59" rx="16"></rect>
                        <path d="M22.7451172,45.2446289 C21.8766233,44.9708645 21.1544625,44.6168642 20.5786133,44.1826172 C20.002764,43.7483702 19.5402036,43.2504097 19.190918,42.6887207 C18.8416324,42.1270317 18.5938321,41.5110711 18.4475098,40.8408203 C18.3011874,40.1705696 18.2280273,39.4625688 18.2280273,38.7167969 L18.2280273,35.2475586 C18.2280273,34.6528291 18.1619473,34.1123885 18.0297852,33.6262207 C17.897623,33.1400529 17.6875828,32.7246925 17.3996582,32.380127 C17.1117336,32.0355614 16.7435732,31.7712412 16.295166,31.5871582 C15.8467588,31.4030753 15.3110383,31.3110352 14.6879883,31.3110352 L14.6879883,30.3764648 C15.3110383,30.3764648 15.8467588,30.2844247 16.295166,30.1003418 C16.7435732,29.9162588 17.1117336,29.6542986 17.3996582,29.3144531 C17.6875828,28.9746077 17.897623,28.5639673 18.0297852,28.0825195 C18.1619473,27.6010718 18.2280273,27.0629913 18.2280273,26.4682617 L18.2280273,22.9707031 C18.2280273,22.2249312 18.3011874,21.5145704 18.4475098,20.8395996 C18.5938321,20.1646288 18.8416324,19.5415881 19.190918,18.970459 C19.5402036,18.3993298 20.002764,17.8942893 20.5786133,17.4553223 C21.1544625,17.0163552 21.8766233,16.6599949 22.7451172,16.3862305 L22.9575195,17.0234375 C22.2589483,17.2500011 21.6595077,17.5544414 21.1591797,17.9367676 C20.6588517,18.3190937 20.2482112,18.7651342 19.9272461,19.2749023 C19.6062809,19.7846705 19.3702807,20.3510711 19.2192383,20.9741211 C19.0681959,21.5971711 18.9926758,22.2626918 18.9926758,22.9707031 L18.9926758,26.4682617 C18.9926758,27.0063503 18.9360357,27.5137509 18.8227539,27.9904785 C18.7094721,28.4672062 18.5324719,28.8967266 18.291748,29.2790527 C18.0510242,29.6613789 17.7418639,29.9870592 17.3642578,30.2561035 C16.9866518,30.5251478 16.5335313,30.721028 16.0048828,30.84375 C16.5335313,30.9759121 16.9866518,31.1788723 17.3642578,31.4526367 C17.7418639,31.7264011 18.0510242,32.0544414 18.291748,32.4367676 C18.5324719,32.8190937 18.7094721,33.2486142 18.8227539,33.7253418 C18.9360357,34.2020694 18.9926758,34.70947 18.9926758,35.2475586 L18.9926758,38.7167969 C18.9926758,39.4248082 19.0729159,40.0856089 19.2333984,40.6992188 C19.393881,41.3128286 19.6393213,41.8697892 19.9697266,42.3701172 C20.3001319,42.8704452 20.7178523,43.3070457 21.2229004,43.6799316 C21.7279485,44.0528176 22.3297491,44.3572579 23.0283203,44.5932617 L22.7451172,45.2446289 Z" id="{" fill="#FFFFFF"></path>
                        <path d="M44.7451172,45.2446289 C43.8766233,44.9708645 43.1544625,44.6168642 42.5786133,44.1826172 C42.002764,43.7483702 41.5402036,43.2504097 41.190918,42.6887207 C40.8416324,42.1270317 40.5938321,41.5110711 40.4475098,40.8408203 C40.3011874,40.1705696 40.2280273,39.4625688 40.2280273,38.7167969 L40.2280273,35.2475586 C40.2280273,34.6528291 40.1619473,34.1123885 40.0297852,33.6262207 C39.897623,33.1400529 39.6875828,32.7246925 39.3996582,32.380127 C39.1117336,32.0355614 38.7435732,31.7712412 38.295166,31.5871582 C37.8467588,31.4030753 37.3110383,31.3110352 36.6879883,31.3110352 L36.6879883,30.3764648 C37.3110383,30.3764648 37.8467588,30.2844247 38.295166,30.1003418 C38.7435732,29.9162588 39.1117336,29.6542986 39.3996582,29.3144531 C39.6875828,28.9746077 39.897623,28.5639673 40.0297852,28.0825195 C40.1619473,27.6010718 40.2280273,27.0629913 40.2280273,26.4682617 L40.2280273,22.9707031 C40.2280273,22.2249312 40.3011874,21.5145704 40.4475098,20.8395996 C40.5938321,20.1646288 40.8416324,19.5415881 41.190918,18.970459 C41.5402036,18.3993298 42.002764,17.8942893 42.5786133,17.4553223 C43.1544625,17.0163552 43.8766233,16.6599949 44.7451172,16.3862305 L44.9575195,17.0234375 C44.2589483,17.2500011 43.6595077,17.5544414 43.1591797,17.9367676 C42.6588517,18.3190937 42.2482112,18.7651342 41.9272461,19.2749023 C41.6062809,19.7846705 41.3702807,20.3510711 41.2192383,20.9741211 C41.0681959,21.5971711 40.9926758,22.2626918 40.9926758,22.9707031 L40.9926758,26.4682617 C40.9926758,27.0063503 40.9360357,27.5137509 40.8227539,27.9904785 C40.7094721,28.4672062 40.5324719,28.8967266 40.291748,29.2790527 C40.0510242,29.6613789 39.7418639,29.9870592 39.3642578,30.2561035 C38.9866518,30.5251478 38.5335313,30.721028 38.0048828,30.84375 C38.5335313,30.9759121 38.9866518,31.1788723 39.3642578,31.4526367 C39.7418639,31.7264011 40.0510242,32.0544414 40.291748,32.4367676 C40.5324719,32.8190937 40.7094721,33.2486142 40.8227539,33.7253418 C40.9360357,34.2020694 40.9926758,34.70947 40.9926758,35.2475586 L40.9926758,38.7167969 C40.9926758,39.4248082 41.0729159,40.0856089 41.2333984,40.6992188 C41.393881,41.3128286 41.6393213,41.8697892 41.9697266,42.3701172 C42.3001319,42.8704452 42.7178523,43.3070457 43.2229004,43.6799316 C43.7279485,44.0528176 44.3297491,44.3572579 45.0283203,44.5932617 L44.7451172,45.2446289 Z" id="{" fill="#FFFFFF" transform="translate(40.858154, 30.815430) scale(-1, 1) translate(-40.858154, -30.815430) "></path>
                    </g>
                </g>
            </g>
        </g>
    </g>
</svg>