<?xml version="1.0" encoding="UTF-8"?>
<svg width="60px" height="60px" viewBox="0 0 60 60" version="1.1" xmlns="http://www.w3.org/2000/svg" xmlns:xlink="http://www.w3.org/1999/xlink">
    <!-- Generator: Sketch 43.2 (39069) - http://www.bohemiancoding.com/sketch -->
    <title>icon</title>
    <desc>Created with Sketch.</desc>
    <defs></defs>
    <g id="Page-1" stroke="none" stroke-width="1" fill="none" fill-rule="evenodd">
        <g id="Desktop-HD" transform="translate(-250.000000, -804.000000)" stroke="#FFFFFF">
            <g id="cards" transform="translate(0.000000, 664.000000)">
                <g id="item" transform="translate(250.000000, 140.000000)">
                    <g id="icon">
                        <rect opacity="0.300000012" x="0.5" y="0.5" width="59" height="59" rx="16"></rect>
                        <path d="M19.0492688,15.6593292 C19.0370059,15.6404736 19.0266082,15.6242387 19.0182291,15.6108715 C19.0441398,15.6108462 19.058536,15.6123449 19.0492688,15.6593292 Z M22.1566459,19.9126527 C24.667205,22.1735399 27.2113116,24.2467765 29.723985,26.1218741 C31.0689325,27.1255491 32.3090392,27.9999139 33.4155492,28.740478 C33.8034875,29.000117 34.1472243,29.224606 34.4431648,29.4133816 C34.6217381,29.5272906 34.7453153,29.604352 34.810301,29.6440012 C35.0772798,29.7932147 35.270273,29.9091259 35.4228856,30.0110481 L35.9367811,30.3542529 L36.1651737,29.7800449 C36.3464125,29.3243873 36.5027958,28.856813 36.6334756,28.3778219 C37.8189942,24.1091327 36.912831,19.2296555 34.3023691,14.795428 C40.8943866,19.7026873 44.4520539,27.5324707 42.7408413,34.0426186 C42.690269,34.2416335 42.6367821,34.4327531 42.5794888,34.6192977 L42.499138,34.880917 L42.6762094,35.0895952 C42.70561,35.1246151 42.70561,35.1246151 42.7353738,35.1615763 C44.3970822,37.2150433 45.2754804,39.4924762 45.4649432,41.5952949 C45.5080623,42.0738665 45.5098987,42.515986 45.4789344,42.8805511 C43.6319301,40.0741352 40.8772023,39.9400228 37.5173603,41.2680285 L37.4817391,41.2328198 L37.1522083,41.4209759 C33.0546984,43.7605798 27.5207953,43.8708572 22.100494,41.5746594 C18.5821895,40.0951031 15.4390973,37.7071862 13.0515645,34.7960552 C13.5992324,35.1034597 14.1866191,35.4001894 14.8187691,35.6915909 C20.7051563,38.4186577 26.8014539,38.3683822 31.2112198,35.6710317 L31.755987,35.3378104 L31.3035562,34.8906201 C31.3051803,34.8923094 31.3086202,34.8959444 31.3165981,34.9043746 C31.3366256,34.9272261 31.3366256,34.9272261 31.3586599,34.9579248 L31.2461189,34.8390082 C26.4939987,31.2378925 22.1050691,26.6543843 17.5066285,20.8978115 C21.4027195,24.0362795 26.0489654,27.3743524 28.3379419,28.6804926 L31.3360946,30.3913044 L28.9465887,27.9001083 C26.6888176,25.5462533 24.3651601,22.7820217 22.1566459,19.9126527 Z M22.1566459,19.9126527 C22.0618454,19.7894849 21.967257,19.6661234 21.872895,19.5425923 C21.0498036,18.4650668 20.2978047,17.4435606 19.6956389,16.5949391 C19.4607887,16.2639688 19.2643024,15.9809249 19.1322176,15.7844283 C19.0991728,15.735269 19.0712298,15.6930966 19.0492688,15.6593292 C19.0365819,15.7236506 18.979546,15.8732192 18.84699,16.2208281 C18.1906351,16.2322725 18.1906351,16.2322725 18.2130751,16.171543 C19.5118261,17.4699809 20.829549,18.7175339 22.1566459,19.9126527 Z M30.9011305,35.2942633 L30.9441355,35.2375129 L30.529611,35.517101 C30.5542955,35.5515106 30.5542955,35.5515106 30.5771941,35.5776365 C30.5943112,35.5957314 30.5943112,35.5957314 30.5988313,35.600105 L30.9011305,35.2942633 Z" id="swift" fill-rule="nonzero"></path>
                    </g>
                </g>
            </g>
        </g>
    </g>
</svg>